<?xml version="1.0" encoding="utf-8"?>
<!-- Generator: Adobe Illustrator 16.0.0, SVG Export Plug-In . SVG Version: 6.00 Build 0)  -->
<!DOCTYPE svg PUBLIC "-//W3C//DTD SVG 1.1//EN" "http://www.w3.org/Graphics/SVG/1.1/DTD/svg11.dtd">
<svg version="1.1" id="레이어_1" xmlns="http://www.w3.org/2000/svg" xmlns:xlink="http://www.w3.org/1999/xlink" x="0px"
	 y="0px" width="24px" height="24px" viewBox="780.14 345.445 24 24" enable-background="new 780.14 345.445 24 24"
	 xml:space="preserve">
<path d="M797.58,347.41c3.148,0,5.615,2.466,5.615,5.614c0,4.099-3.96,7.69-9.956,13.128l-1.07,0.975l-1.073-0.976
	c-5.995-5.437-9.955-9.028-9.955-13.127c0-3.148,2.467-5.614,5.615-5.614c1.757,0,3.496,0.805,4.654,2.153l0.76,0.884l0.758-0.885
	C794.083,348.215,795.823,347.41,797.58,347.41 M797.58,346.41c-2.092,0-4.102,0.975-5.411,2.502
	c-1.312-1.527-3.32-2.502-5.413-2.502c-3.704,0-6.615,2.898-6.615,6.614c0,4.535,4.09,8.251,10.283,13.868l1.745,1.587l1.743-1.587
	c6.193-5.617,10.283-9.333,10.283-13.868C804.195,349.309,801.284,346.41,797.58,346.41L797.58,346.41z"/>
</svg>
